<?xml version="1.0" encoding="utf-8"?>
<!-- Generator: Adobe Illustrator 25.1.0, SVG Export Plug-In . SVG Version: 6.00 Build 0)  -->
<svg version="1.1" id="Layer_1" xmlns="http://www.w3.org/2000/svg" xmlns:xlink="http://www.w3.org/1999/xlink" x="0px" y="0px"
	 viewBox="0 0 1000 1000" style="enable-background:new 0 0 1000 1000;" xml:space="preserve">
<style type="text/css">
	.st0{fill:#F27250;}
	.st1{fill:#0E2249;}
</style>
<g>
	<g>
		<path class="st0" d="M259.22,415.27l-6.34,46.39h-24.51l15.49-113.28h43.6c14.47,0,20.66,7.7,18.55,23.11l-1.79,13.13
			c-1.28,9.34-5.42,15.29-12.42,17.86c5.55,2.1,7.81,6.89,6.79,14.35l-6.13,44.82h-24.51l5.87-42.9c0.32-2.33-0.63-3.5-2.85-3.5
			H259.22z M266.09,365.02l-4.53,33.09h12.96c0.93,0,1.77-0.35,2.51-1.05c0.74-0.7,1.17-1.52,1.3-2.45l3.57-26.09
			c0.13-0.93-0.09-1.75-0.63-2.45c-0.55-0.7-1.29-1.05-2.22-1.05H266.09z"/>
		<path class="st0" d="M388.71,369.75l-9.65,70.56c-2.11,15.41-10.4,23.11-24.88,23.11H330.9c-14.47,0-20.66-7.7-18.55-23.11
			l9.65-70.56c2.11-15.41,10.4-23.11,24.87-23.11h23.28C384.63,346.64,390.81,354.34,388.71,369.75z M354.16,443.11l10.44-76.34
			c0.13-0.93-0.08-1.75-0.63-2.45c-0.55-0.7-1.29-1.05-2.22-1.05h-11.03c-0.94,0-1.77,0.35-2.51,1.05c-0.74,0.7-1.17,1.52-1.3,2.45
			l-10.44,76.34c-0.13,0.94,0.08,1.75,0.63,2.45c0.54,0.7,1.28,1.05,2.22,1.05h11.03c0.93,0,1.77-0.35,2.51-1.05
			C353.6,444.86,354.03,444.05,354.16,443.11z"/>
		<path class="st0" d="M454.89,346.64c14.47,0,20.66,7.7,18.55,23.11l-12.57,91.92h-24.51l5.19-37.99h-17.69l-5.19,37.99h-24.51
			l12.57-91.92c2.11-15.41,10.4-23.11,24.87-23.11H454.89z M426.46,404.77h17.69l5.19-37.99c0.13-0.93-0.08-1.75-0.63-2.45
			c-0.55-0.7-1.29-1.05-2.22-1.05h-11.03c-0.94,0-1.77,0.35-2.51,1.05c-0.74,0.7-1.17,1.52-1.3,2.45L426.46,404.77z"/>
		<path class="st0" d="M539.57,348.39c14.47,0,20.66,7.7,18.55,23.11l-9.17,67.06c-2.11,15.41-10.4,23.11-24.87,23.11h-45
			l15.49-113.28H539.57z M524.05,441.36l9.96-72.83c0.13-0.93-0.09-1.75-0.63-2.45c-0.55-0.7-1.29-1.05-2.22-1.05h-14.36
			l-10.92,79.84h14.36c0.93,0,1.77-0.35,2.51-1.05C523.49,443.11,523.93,442.29,524.05,441.36z"/>
		<path class="st0" d="M167.76,567.56l-6.62,48.36h-26.66l16.85-123.2h55.6l-3.15,23.04h-28.94l-4.04,29.51h27.04l-3.05,22.28
			H167.76z"/>
		<path class="st0" d="M235.38,593.83h29.52l-3.02,22.09H205.7l16.85-123.2h56.17l-2.97,21.71h-29.52l-3.96,28.94h27.61l-2.86,20.95
			h-27.61L235.38,593.83z"/>
		<path class="st0" d="M310.86,565.46l-6.9,50.46H277.3l16.85-123.2h47.41c15.74,0,22.47,8.38,20.17,25.13l-1.95,14.28
			c-1.39,10.16-5.89,16.63-13.51,19.42c6.04,2.29,8.5,7.49,7.39,15.61l-6.67,48.75h-26.66l6.38-46.65c0.35-2.54-0.69-3.81-3.1-3.81
			H310.86z M318.33,510.81l-4.92,35.99h14.09c1.01,0,1.92-0.38,2.73-1.14c0.8-0.76,1.27-1.65,1.41-2.67l3.88-28.37
			c0.14-1.01-0.09-1.9-0.68-2.67c-0.6-0.76-1.4-1.14-2.42-1.14H318.33z"/>
		<path class="st0" d="M399.02,565.46l-6.9,50.46h-26.66l16.85-123.2h47.41c15.74,0,22.47,8.38,20.17,25.13l-1.95,14.28
			c-1.39,10.16-5.89,16.63-13.51,19.42c6.04,2.29,8.5,7.49,7.39,15.61l-6.67,48.75h-26.66l6.38-46.65c0.35-2.54-0.69-3.81-3.1-3.81
			H399.02z M406.49,510.81l-4.92,35.99h14.09c1.01,0,1.92-0.38,2.73-1.14c0.8-0.76,1.27-1.65,1.41-2.67l3.88-28.37
			c0.14-1.01-0.09-1.9-0.68-2.67c-0.6-0.76-1.4-1.14-2.42-1.14H406.49z"/>
		<path class="st0" d="M541.88,492.72l-37.17,78.26l-6.15,44.94H471.9l6.15-44.94l-15.77-78.26h25.14l7.63,51.41l21.69-51.41H541.88
			z"/>
	</g>
	<g>
		<path class="st1" d="M576.82,582.99c0.14-12.94,0.84-25.8,1.69-38.63c0.87-12.83,1.94-25.63,3.18-38.4
			c1.23-12.77,2.71-25.51,4.24-38.24c1.59-12.72,3.31-25.41,5.13-38.1c0.68-4.75,4.77-8.18,9.44-8.16l0.1,0
			c8.14,0.02,15.93-0.23,24.34,0.02l6.26,0.16l6.25,0.42c4.17,0.2,8.32,0.72,12.46,1.23c16.57,2.03,32.9,5.84,48.59,11.34
			c15.7,5.47,30.7,12.75,44.72,21.39c13.96,8.73,27.03,18.8,38.3,30.56c-14.19-7.97-28.4-15.31-43.06-21.37
			c-14.59-6.16-29.56-11.07-44.68-14.98c-15.12-3.95-30.53-6.45-45.97-7.99c-3.87-0.35-7.73-0.69-11.61-0.87l-5.81-0.33l-5.82-0.09
			c-7.69-0.16-16.01-0.12-23.98-0.19l9.53-8.16c-2.14,12.63-4.38,25.25-6.75,37.84c-2.43,12.59-4.91,25.16-7.65,37.7
			c-2.73,12.54-5.62,25.05-8.71,37.54C583.9,558.17,580.64,570.62,576.82,582.99z"/>
		<path class="st1" d="M624.88,494.97c16.66-1.87,33.33-3.16,49.99-4.32c8.33-0.65,16.66-1.03,25-1.52c8.33-0.48,16.66-0.96,25-1.24
			l12.5-0.5l6.25-0.25l3.13-0.13l3.57-0.05c4.83,0.07,9.85,0.87,14.8,2.56c4.92,1.75,9.73,4.5,13.64,8.18
			c7.92,7.42,12.12,17.07,14.36,26.12c2.27,9.16,2.98,18.17,3.02,27l-8.38-9.6c15.47,2,30.91,4.19,46.35,6.37l23.14,3.42l5.78,0.89
			c0.88,0.11,2.05,0.36,3.24,0.63c1.17,0.26,2.34,0.52,3.42,0.86c4.42,1.25,8.7,3,12.68,5.26c7.97,4.49,14.85,10.83,19.91,18.35
			c2.54,3.75,4.56,7.83,6.14,12.04l1.08,3.12l0.86,2.79l1.72,5.58l6.86,22.33l6.57,22.43l0.15,0.51c0.8,2.72-0.76,5.57-3.48,6.37
			c-0.55,0.16-1.14,0.22-1.68,0.2c-11.6-0.54-112.58-4.06-124.18-5.32c11.6-1.26,112.58-4.77,124.18-5.32l-5.02,7.08l-8.9-21.62
			l-8.6-21.72l-2.14-5.43l-1.07-2.72l-1.01-2.33c-1.37-2.99-3.11-5.77-5.05-8.38c-3.9-5.22-9.08-9.35-14.78-12.26
			c-2.85-1.47-5.88-2.56-8.97-3.31c-0.78-0.23-1.52-0.34-2.25-0.48c-0.7-0.14-1.45-0.29-2.5-0.39l-5.78-0.69l-23.12-2.87
			c-15.4-2.02-30.79-4.02-46.16-6.22l-0.05-0.01c-4.84-0.69-8.33-4.85-8.33-9.6c-0.01-7.82-0.44-15.55-1.99-22.63
			c-1.57-7.05-4.19-13.4-8.37-17.63c-4.05-4.32-9.94-6.7-16.96-7.42l-2.68-0.21l-3.13-0.13l-6.25-0.25l-12.5-0.5
			c-8.33-0.28-16.66-0.76-25-1.24c-8.33-0.49-16.66-0.87-25-1.52C658.21,498.13,641.55,496.84,624.88,494.97z"/>
		<path class="st1" d="M74.14,643.63c17.19-2.54,471.68-7.81,488.87-8.48c34.37-1.37,68.74-1.53,103.12-0.89l-9.37,9.37
			c0.16-13.62,6.56-26.91,16.77-35.43c5.06-4.32,11.05-7.45,17.35-9.27c3.16-0.91,6.4-1.38,9.63-1.63c1.62-0.08,3.24-0.03,4.84-0.04
			l4.16,0.25l4.16,0.32c1.59,0.19,3.17,0.33,4.73,0.59c3.12,0.59,6.16,1.44,9.06,2.61c5.82,2.31,10.96,6.01,15.06,10.45
			c8.35,8.8,12.1,21.15,10.39,32.14c-0.83-5.5-2.71-10.64-5.39-15.13c-2.73-4.46-6.25-8.27-10.24-11.23
			c-4.03-2.94-8.57-4.93-13.17-6.07c-2.32-0.55-4.67-0.82-7.01-0.91c-1.17-0.01-2.34,0.08-3.5,0.1l-4.08,0.3l-4.08,0.28
			c-1.13,0.16-2.27,0.25-3.38,0.44c-2.22,0.45-4.37,1.07-6.44,1.9c-4.13,1.64-7.82,4.19-10.89,7.26
			c-6.15,6.17-9.53,14.64-9.24,23.07c0.17,5-3.75,9.19-8.75,9.36l-0.09,0l-0.54,0.01c-34.37,0.64-68.74,0.48-103.12-0.89
			C545.83,651.44,91.33,646.17,74.14,643.63z"/>
	</g>
</g>
</svg>
